HIERARCHY
ROOT hips
{
  OFFSET 0 9.313263304106702 1.2146308026317778
  CHANNELS 6 Xposition Yposition Zposition Yrotation Xrotation Zrotation
  JOINT spine
  {
    OFFSET -6.402521e-31 0.5173342420023708 0
    CHANNELS 3 Yrotation Xrotation Zrotation
    JOINT chest
    {
      OFFSET 0 1.130544299341115 0
      CHANNELS 3 Yrotation Xrotation Zrotation
      JOINT upperChest
      {
        OFFSET 0 1.0863555061129995 0
        CHANNELS 3 Yrotation Xrotation Zrotation
        JOINT neck
        {
          OFFSET 0 1.3773706506454462 0
          CHANNELS 3 Yrotation Xrotation Zrotation
          JOINT head
          {
            OFFSET 0 0.7374408940073979 0
            CHANNELS 3 Yrotation Xrotation Zrotation
            JOINT leftEye
            {
              OFFSET 0.25066580148932727 0.6408406698778757 0.15963719178883284
              CHANNELS 3 Yrotation Xrotation Zrotation
              End Site
              {
                OFFSET 0.25066580148932727 0.6408406698778757 0.15963719178883284
              }
            }
            JOINT rightEye
            {
              OFFSET -0.25066576739704244 0.6408406384191823 0.15963727561643756
              CHANNELS 3 Yrotation Xrotation Zrotation
              End Site
              {
                OFFSET -0.25066576739704244 0.6408406384191823 0.15963727561643756
              }
            }
          }
        }
        JOINT leftShoulder
        {
          OFFSET 0.3761817444281191 1.0539491987447769 0
          CHANNELS 3 Yrotation Xrotation Zrotation
          JOINT leftUpperArm
          {
            OFFSET 0.8702844380000002 0 0
            CHANNELS 3 Yrotation Xrotation Zrotation
            JOINT leftLowerArm
            {
              OFFSET 2.198527310000323 0 0
              CHANNELS 3 Yrotation Xrotation Zrotation
              JOINT leftHand
              {
                OFFSET 2.146852313968281 0 0
                CHANNELS 3 Yrotation Xrotation Zrotation
                JOINT leftIndexProximal
                {
                  OFFSET 0.6585177834681599 0.07380250427007962 0.18382213159631788
                  CHANNELS 3 Yrotation Xrotation Zrotation
                  JOINT leftIndexIntermediate
                  {
                    OFFSET 0.3323021288626682 -0.009606893929485771 -0.012820872253340998
                    CHANNELS 3 Yrotation Xrotation Zrotation
                    JOINT leftIndexDistal
                    {
                      OFFSET 0.2045908926985518 -0.0071133989147997845 -0.006828784783599051
                      CHANNELS 3 Yrotation Xrotation Zrotation
                      End Site
                      {
                        OFFSET 0.2045908926985518 -0.0071133989147997845 -0.006828784783599051
                      }
                    }
                  }
                }
                JOINT leftLittleProximal
                {
                  OFFSET 0.6110054258835662 0.07380246363125398 -0.29175655876064077
                  CHANNELS 3 Yrotation Xrotation Zrotation
                  JOINT leftLittleIntermediate
                  {
                    OFFSET 0.3144281999999998 -2.5124724523095665e-9 1.8658118799974588e-7
                    CHANNELS 3 Yrotation Xrotation Zrotation
                    JOINT leftLittleDistal
                    {
                      OFFSET 0.18116185580251631 0.002815456192251098 0.0034826415518049436
                      CHANNELS 3 Yrotation Xrotation Zrotation
                      End Site
                      {
                        OFFSET 0.18116185580251631 0.002815456192251098 0.0034826415518049436
                      }
                    }
                  }
                }
                JOINT leftMiddleProximal
                {
                  OFFSET 0.6637478005691111 0.07380246480054087 0.02046981859247815
                  CHANNELS 3 Yrotation Xrotation Zrotation
                  JOINT leftMiddleIntermediate
                  {
                    OFFSET 0.3705733999999994 -2.9611069152224445e-9 9.35054791928458e-8
                    CHANNELS 3 Yrotation Xrotation Zrotation
                    JOINT leftMiddleDistal
                    {
                      OFFSET 0.22861063500000056 -1.82673876025774e-9 -1.6740782024515788e-7
                      CHANNELS 3 Yrotation Xrotation Zrotation
                      End Site
                      {
                        OFFSET 0.22861063500000056 -1.82673876025774e-9 -1.6740782024515788e-7
                      }
                    }
                  }
                }
                JOINT leftRingProximal
                {
                  OFFSET 0.6561845547265777 0.07380246406440083 -0.13588087571513918
                  CHANNELS 3 Yrotation Xrotation Zrotation
                  JOINT leftRingIntermediate
                  {
                    OFFSET 0.3437531000000005 -2.746796123886952e-9 1.4935781944558357e-7
                    CHANNELS 3 Yrotation Xrotation Zrotation
                    JOINT leftRingDistal
                    {
                      OFFSET 0.1983118991198174 -0.002467117924596085 -0.004538141969590015
                      CHANNELS 3 Yrotation Xrotation Zrotation
                      End Site
                      {
                        OFFSET 0.1983118991198174 -0.002467117924596085 -0.004538141969590015
                      }
                    }
                  }
                }
                JOINT leftThumbProximal
                {
                  OFFSET 0.09767004258864787 -0.14930060425447422 -0.07008212897521154
                  CHANNELS 3 Yrotation Xrotation Zrotation
                  JOINT leftThumbIntermediate
                  {
                    OFFSET 0.36682123028154767 -0.015768465060082004 0.28693641268151077
                    CHANNELS 3 Yrotation Xrotation Zrotation
                    JOINT leftThumbDistal
                    {
                      OFFSET 0.21091084272403915 -0.016756648201192714 0.1933767059105508
                      CHANNELS 3 Yrotation Xrotation Zrotation
                      End Site
                      {
                        OFFSET 0.21091084272403915 -0.016756648201192714 0.1933767059105508
                      }
                    }
                  }
                }
              }
            }
          }
        }
        JOINT rightShoulder
        {
          OFFSET -0.37618174442811925 1.0539491987447769 0
          CHANNELS 3 Yrotation Xrotation Zrotation
          JOINT rightUpperArm
          {
            OFFSET -0.870284438 0 0
            CHANNELS 3 Yrotation Xrotation Zrotation
            JOINT rightLowerArm
            {
              OFFSET -2.1985273100003235 0 0
              CHANNELS 3 Yrotation Xrotation Zrotation
              JOINT rightHand
              {
                OFFSET -2.1468523139682802 0 0
                CHANNELS 3 Yrotation Xrotation Zrotation
                JOINT rightIndexProximal
                {
                  OFFSET -0.6585177834681599 0.07380250427007962 0.18382213159631788
                  CHANNELS 3 Yrotation Xrotation Zrotation
                  JOINT rightIndexIntermediate
                  {
                    OFFSET -0.3323021288626682 -0.009606893929485771 -0.012820872253340998
                    CHANNELS 3 Yrotation Xrotation Zrotation
                    JOINT rightIndexDistal
                    {
                      OFFSET -0.2045908926985518 -0.0071133989147997845 -0.006828784783599051
                      CHANNELS 3 Yrotation Xrotation Zrotation
                      End Site
                      {
                        OFFSET -0.2045908926985518 -0.0071133989147997845 -0.006828784783599051
                      }
                    }
                  }
                }
                JOINT rightLittleProximal
                {
                  OFFSET -0.6110054258835662 0.07380246363125398 -0.29175655876064077
                  CHANNELS 3 Yrotation Xrotation Zrotation
                  JOINT rightLittleIntermediate
                  {
                    OFFSET -0.3144281999999998 -2.5124724523095665e-9 1.8658118799974588e-7
                    CHANNELS 3 Yrotation Xrotation Zrotation
                    JOINT rightLittleDistal
                    {
                      OFFSET -0.18116185580251631 0.002815456192251098 0.0034826415518049436
                      CHANNELS 3 Yrotation Xrotation Zrotation
                      End Site
                      {
                        OFFSET -0.18116185580251631 0.002815456192251098 0.0034826415518049436
                      }
                    }
                  }
                }
                JOINT rightMiddleProximal
                {
                  OFFSET -0.6637478005691111 0.07380246480054087 0.02046981859247815
                  CHANNELS 3 Yrotation Xrotation Zrotation
                  JOINT rightMiddleIntermediate
                  {
                    OFFSET -0.3705733999999994 -2.9611069152224445e-9 9.35054791928458e-8
                    CHANNELS 3 Yrotation Xrotation Zrotation
                    JOINT rightMiddleDistal
                    {
                      OFFSET -0.22861063500000056 -1.82673876025774e-9 -1.6740782024515788e-7
                      CHANNELS 3 Yrotation Xrotation Zrotation
                      End Site
                      {
                        OFFSET -0.22861063500000056 -1.82673876025774e-9 -1.6740782024515788e-7
                      }
                    }
                  }
                }
                JOINT rightRingProximal
                {
                  OFFSET -0.6561845547265777 0.07380246406440083 -0.13588087571513918
                  CHANNELS 3 Yrotation Xrotation Zrotation
                  JOINT rightRingIntermediate
                  {
                    OFFSET -0.3437531000000005 -2.746796123886952e-9 1.4935781944558357e-7
                    CHANNELS 3 Yrotation Xrotation Zrotation
                    JOINT rightRingDistal
                    {
                      OFFSET -0.1983118991198174 -0.002467117924596085 -0.004538141969590015
                      CHANNELS 3 Yrotation Xrotation Zrotation
                      End Site
                      {
                        OFFSET -0.1983118991198174 -0.002467117924596085 -0.004538141969590015
                      }
                    }
                  }
                }
                JOINT rightThumbProximal
                {
                  OFFSET -0.09767004258864787 -0.14930060425447422 -0.07008212897521154
                  CHANNELS 3 Yrotation Xrotation Zrotation
                  JOINT rightThumbIntermediate
                  {
                    OFFSET -0.36682123028154767 -0.015768465060082004 0.28693641268151077
                    CHANNELS 3 Yrotation Xrotation Zrotation
                    JOINT rightThumbDistal
                    {
                      OFFSET -0.21091084272403915 -0.016756648201192714 0.1933767059105508
                      CHANNELS 3 Yrotation Xrotation Zrotation
                      End Site
                      {
                        OFFSET -0.21091084272403915 -0.016756648201192714 0.1933767059105508
                      }
                    }
                  }
                }
              }
            }
          }
        }
      }
    }
  }
  JOINT leftUpperLeg
  {
    OFFSET 0.7715603 -0.3993844658041501 0
    CHANNELS 3 Yrotation Xrotation Zrotation
    JOINT leftLowerLeg
    {
      OFFSET 0 -3.529830000249343 0
      CHANNELS 3 Yrotation Xrotation Zrotation
      JOINT leftFoot
      {
        OFFSET 0 -4.154939295409685 0.004208579085223096
        CHANNELS 3 Yrotation Xrotation Zrotation
        JOINT leftToes
        {
          OFFSET 0 -0.6353414391261847 1.10414981190622
          CHANNELS 3 Yrotation Xrotation Zrotation
          End Site
          {
            OFFSET 0 -0.6015820691747853 1.10414981190622
          }
        }
      }
    }
  }
  JOINT rightUpperLeg
  {
    OFFSET -0.7715603 -0.3993844658041501 0
    CHANNELS 3 Yrotation Xrotation Zrotation
    JOINT rightLowerLeg
    {
      OFFSET 0 -3.529830000249343 0
      CHANNELS 3 Yrotation Xrotation Zrotation
      JOINT rightFoot
      {
        OFFSET 0 -4.154939295409685 0.004208579085223096
        CHANNELS 3 Yrotation Xrotation Zrotation
        JOINT rightToes
        {
          OFFSET 0 -0.6353414391261847 1.10414981190622
          CHANNELS 3 Yrotation Xrotation Zrotation
          End Site
          {
            OFFSET 0 -0.6015820691747853 1.10414981190622
          }
        }
      }
    }
  }
}
MOTION
Frames: 4
Frame Time: 0.03333333333333333
-0.651654221794822 8.835618279196998 1.415844961708642 -22.39564335838389 1.3512042159338713 -5.663736318550497 1.0964656445759209 -0.33624680684302816 2.058766151127635 2.180333516851811 -0.7083425983259021 4.110871078998337 0 0 0 5.280542542817248 3.9645445084964686 2.621233621061548 11.316823011236867 1.0993556654410603 7.775894648956571 0 0 0 0 0 0 4.120110972014407 0.13395361860954771 2.476219357155591 18.511705368686265 -5.398824259692642 -76.48771534677375 0.2627420729253761 16.65396092693919 0.000888134170332915 4.5425268476393 -7.971522241159523 60.19212893555064 8.146981634925375 -0.3401058509021607 -18.367402287936887 0.000007411143893908096 0.000003615928547590208 -11.971701125679479 -0.000003870719780678623 0.0000014203967398634308 6.114837835044328 19.335969443361368 -12.825967844386447 -16.303080319955498 0.000013008949445275648 0.00000194093690391773 -17.232101601047894 0.000008381236480636907 0.000004444647361616357 -9.50247289508914 6.617337929927895 2.786461585332796 -22.735971561079104 0.0000058034047481975 0.000001822222522321042 -7.969547994378533 -0.0000019538215599322747 -0.0000010874654358053122 -2.5345531549814333 11.438208071443043 -6.74332188065093 -23.59361947379456 0.000016853980114791772 0.0000029905468181266405 -16.771597318542344 -0.000002956668669214935 -0.0000011216552281869222 -2.3400199019112713 27.31515380539079 2.3818705119249444 -35.39194565403469 -2.367704947569138 -2.0440090593278617 1.6393568073823384 -4.760603963579474 -0.000001494506106607526 -0.000005896308292443175 -2.3793576160372267 -0.02075399048428573 1.3574620076722805 -6.123114265249939 -29.072481447626405 64.10901672048698 135.64663345597023 74.7803679841952 0.22444559460188218 -5.7424387073524255 -3.269473581314219 -29.55624989936945 4.809106650659264 -0.32321093479741675 9.347276299249897 -0.000014299799902963624 7.181523010791193e-7 14.969800924293393 5.587220614498949e-8 -0.0000019992193216781138 -1.600828951952941 -21.911582224529504 -16.364711407232985 45.43963353039444 -0.000037383602597203084 0.000024545191135287596 59.853007873052185 -0.000025910214774366353 0.000005065643487840749 35.68578709579392 -6.4115185499648 1.8996071699682642 16.43558710719062 -0.000007870454665456345 0.000004801659281278772 18.85799896906915 -0.00001649734110880468 0.000007799851847526419 15.842202438917727 -10.741058051002684 -7.770898194875985 36.98524105640397 -0.000041021243595713376 0.000026575505798642392 63.699797882719984 -0.00002526173580591725 0.000008593292457914528 31.781396654373314 -33.92386213940113 17.863993981273957 26.58686787269716 -22.787282783424605 -0.2213415550977076 -0.18580243646155617 -16.825873893194448 -0.000007213528143773219 -0.00001348944138789168 -26.64392603800862 -3.6560311075207723 7.955528659729868 1.1558921025365363 40.463195323139374 3.4361867617883908 34.95339983548694 14.69047325548682 -1.5486189982256873 1.6348604715083057 -9.58469890859102 -0.037008405589234857 12.699798088241558 -4.304262795133668 11.087988701612398 -0.33726204483872374 6.388335830847866 0.28241910897471273 5.910127812129403 -3.0212495994783892 -9.23527656523026 0.20639866747660138 1.3362125238717886 0.07333886896631903
-0.6523801521821455 8.837245594371447 1.4138436138417165 -22.4095002092003 1.3364411839556076 -5.591503297036793 1.0860771844453414 -0.33487783736437277 2.0411933099390756 2.15972777752508 -0.7035617967103073 4.075847902827578 0 0 0 5.302058448814423 3.9018720600128964 2.5628003904528556 11.350266279256504 1.0156453293202212 7.703922447336507 0 0 0 0 0 0 4.111184069894855 0.1349361413585513 2.556435230191392 18.595393457224564 -5.40407437465244 -76.52847878926582 0.2622965554901736 16.62385829832837 0.0008898156432238364 4.5714785304852885 -7.983518595030846 60.072945872349365 8.168432206727372 -0.351157084629192 -18.378920613314254 0.0000076193046331450165 0.000002635563329017875 -11.955793555330956 -0.000004971248288893886 5.354351850719043e-7 6.147423194835245 19.326372850700334 -12.839437889206637 -16.32489195039394 0.000011757624580280639 0.000002599661838440014 -17.231398943791806 0.000007890217461802836 0.0000013207820725732428 -9.5029141847228 6.612016052094596 2.7868045675825828 -22.757304176884027 0.000005802828686133594 0.0000018240565573725612 -7.987655950789832 -9.538949631803201e-7 -0.000001044070965508922 -2.584228007032821 11.435419479818602 -6.755598423244188 -23.61544599853407 0.000017142099082720913 0.0000020367649300263548 -16.783899815041483 -0.000001956118073078916 -0.0000010833290862754127 -2.4133239178576367 27.304857114832235 2.3605187739776126 -35.39321778256312 -2.368017257929805 -2.0528034249775113 1.6460976863968952 -4.762675012286813 -0.000003404784702506445 -0.000004733649760413834 -2.313895944027641 -0.023902777967278986 1.1931491978341806 -6.175353883905778 -29.205593195616714 64.14543307758301 135.6548089756252 74.66931622827465 0.22425726555425243 -5.776487026946315 -3.2856474581991133 -29.53388101949851 4.850001915653227 -0.30491338346301305 9.363123064308583 -0.000018232133897819994 -0.0000023641664453819685 14.991798939975851 0.000001025185595143515 -9.741634931656019e-7 -1.4618330291629575 -21.90683332841709 -16.367749284591127 45.39354328035157 -0.000037356896115653774 0.0000245858142992345 59.91529516784658 -0.00002450743403277301 0.000005327817271789162 35.763593706313564 -6.421851823161543 1.9066959073459813 16.47144042155833 -0.000007243517568420243 0.0000035399783266853567 18.920198886009274 -0.000016350756722422897 0.0000046532538873974364 15.885796354152527 -10.735210615446203 -7.76082519671225 36.96611133474577 -0.0000410174362936486 0.000026581379596139246 63.707999447749046 -0.00002557841279622016 0.000009987225863272954 31.819896609287273 -33.908952122275984 17.839341953314726 26.585385575647063 -22.815620422961516 -0.2327011293302873 -0.19533503585497003 -16.87087903011894 -0.000004353237507626847 -0.000014354419543063957 -26.598090572693774 -3.6499351578792463 7.922589918218501 1.1511503394575617 40.38612390997925 3.427849566072202 34.85595084500249 14.763556400457677 -1.5287387471428087 1.6333535271262172 -9.619794921608538 -0.03702583735701354 12.698336603710455 -4.295773733645856 11.026217468500322 -0.33763722727564904 6.402663379020761 0.28023932236556626 5.925855045124867 -2.9982988141843547 -9.231071212737982 0.21359559208092016 1.3573778701559256 0.07340706776440507
-0.6525563651865178 8.838852969082918 1.411385951779505 -22.440661452913858 1.3315369528986363 -5.524692732535905 1.093890454015492 -0.3369458727594682 2.025499066444408 2.1752029630362455 -0.7110093514274985 4.044170461891261 0 0 0 5.317650053269836 3.7941112592025785 2.4728026386052475 11.376763280623384 0.998985203859943 7.680415670622381 0 0 0 0 0 0 4.103056097069978 0.13585520457445951 2.6056896730997 18.61910410359905 -5.401150873140403 -76.55146556255202 0.2617747077380091 16.638860012156396 0.0008915276731490537 4.573708300898219 -7.990649329141583 60.06456936105839 8.180403572462312 -0.3635045992537743 -18.36867918223732 0.000007616576989450193 0.0000026434348201879355 -12.01499816420358 -0.000004864786319929944 0.0000015276962379305335 6.124000659354168 19.34229856193541 -12.853321993770704 -16.269671836463456 0.000012349236655913771 7.045182554927458e-7 -17.301402232500955 0.000007556180444270823 0.0000033021402133822573 -9.569652391549411 6.596669906068855 2.7815175233256393 -22.745821590420885 0.000005799172015138534 0.0000018356486359645602 -8.10214856733601 -0.000001950538209723506 -0.0000010933441186341549 -2.707090077307587 11.434023052445312 -6.768050669472811 -23.575015788956502 0.000015599591332416617 0.0000036949662983132 -16.90200045750893 -0.000001908779816755261 -0.0000020872373303775613 -2.557063012001889 27.302050693600393 2.3581148574966067 -35.39848509662248 -2.3683380481258234 -2.060568162177147 1.6531985469868462 -4.742535145491409 -0.000002571901142958202 -0.000006810677154041752 -2.247575305954854 -0.026161394675974118 1.0421180909928176 -6.294241058813212 -29.296349886987382 64.17286889043447 135.6715095114666 74.5729032192108 0.2231989891049174 -5.810527435225178 -3.3049407057830207 -29.532327171520905 4.858314604843362 -0.30540385669885195 9.375262945821692 -0.000017903334770404067 0.000002733234550175502 15.020300076344464 0.000002023522830554486 -9.51501455838113e-7 -1.381190054515898 -21.902098872588226 -16.386235619401294 45.36837908032447 -0.000037832571120926776 0.00002548914638164412 59.97289329027755 -0.000025086808351769287 0.00000454444858752194 35.827689878851146 -6.4228862486747875 1.9103245372248139 16.50285299172381 -0.000008510515392663541 0.0000029276483723015173 18.98340325125771 -0.000015384175875173478 0.000004396263440691187 15.948096036554395 -10.739551658864302 -7.766742299899708 36.956841020403964 -0.00004055345025938545 0.000027935953510092504 63.729302164570115 -0.000026095715715386246 0.000009165898149437768 31.882200905946732 -33.89898645067637 17.826195720573885 26.568076886717606 -22.840994484906307 -0.2517626501952438 -0.21134244501870228 -16.916381803988184 -0.000006943852118331043 -0.000012521298862849202 -26.570014274549866 -3.6629586649854073 7.8809290978617055 1.1470229504141223 40.328172116022365 3.420869948499394 34.82313753810244 14.819309534226353 -1.5317945108313709 1.631990537271195 -9.601934301723773 -0.037045393422783186 12.686581181711503 -4.2801499120277615 10.957169577634694 -0.3380304780631578 6.381127104693619 0.2787479560873033 5.973888855025241 -2.9659700107141496 -9.218240269993105 0.21482473732837645 1.3708542375890886 0.07346632630594556
-0.6528259949250655 8.840097947554154 1.4084824334278636 -22.491589427297484 1.3321706241356905 -5.472681965701195 1.1065127656656755 -0.34594187189249137 2.017409153646502 2.2004714646039627 -0.7307450376305011 4.029314052087254 0 0 0 5.346494612859515 3.7101038446411287 2.381856114659408 11.42455176467935 0.9595290148293872 7.608432288073858 0 0 0 0 0 0 4.117403962242444 0.13670876719186092 2.6430595801259438 18.672985203925197 -5.391392963477068 -76.5872017196038 0.2611755554784048 16.710864278514357 0.000891778355950635 4.570235896724054 -7.966259129749848 60.0145810160609 8.199858841491942 -0.37573203957813944 -18.34418478784803 0.000007402603519366305 0.000003633380581905085 -12.106700397576267 -0.000003977738677489508 4.214199330726727e-7 6.047619397774167 19.322041887534375 -12.858381935845804 -16.18673477809758 0.00001115940672157404 0.000004524117057109528 -17.304404566799107 0.000007388212959765618 0.000004291189313123609 -9.592642204554306 6.583742035525968 2.780091749960022 -22.74467392220635 0.000006784398546152627 0.0000019929742389499667 -8.240494261729049 -9.493883461966235e-7 -0.0000010481706750488912 -2.831056892239361 11.44088443810924 -6.77851326347051 -23.55263730125575 0.000017799648484232865 0.0000033425319347260963 -16.97569957165629 -0.0000019513129419550357 -0.0000010919602465700315 -2.666448012273896 27.307928611005778 2.352541410302875 -35.40252414192057 -2.368662170153008 -2.0825640073105487 1.6691670350066783 -4.715585982180621 -6.576769290325225e-7 -0.00000797292043285187 -2.190516426774597 -0.027821024106793196 0.9029827055329703 -6.332176506477409 -29.33637670213977 64.1915450125283 135.68219909382012 74.54847830272459 0.22221946261020853 -5.814541547905442 -3.303268371480178 -29.50289838496217 4.837958312111123 -0.32454681841223765 9.328217360940869 -0.00001578499293835272 -9.132390267979825e-7 15.123798451111673 -9.763397050119715e-7 -0.000001023113400157448 -1.340092082342182 -21.912031672822526 -16.382780978087133 45.34610143680241 -0.00003869317120441302 0.000024996765169406578 59.98478192059337 -0.000024499897593955316 0.00000536237122495958 35.84439174971467 -6.412666073308093 1.912599402263374 16.469171835000477 -0.00000915868658519734 0.0000010575735142425452 19.115702327679685 -0.000018112646819546785 0.00000937720829936472 16.061394856515033 -10.743365364407627 -7.7754151814977925 36.92798700246112 -0.00003964553736401305 0.00002617692621751483 63.77900204266111 -0.000025556635614649493 0.000010042827455103427 31.944496362475014 -33.886352728403864 17.834468281065345 26.558630470581203 -22.86368428792781 -0.2675655490749579 -0.22458965142150383 -16.987480781380864 -0.0000046746040095299145 -0.00001530189874222964 -26.520146448983613 -3.6860888401428276 7.855874944342328 1.1436071755423811 40.2739179586502 3.4145653118351666 34.81673163980512 14.856753019590633 -1.545881525425405 1.630724137086266 -9.594745637856773 -0.03707022544242185 12.673209738326573 -4.284355388564519 10.89806053246369 -0.33844357753061327 6.355021985970396 0.2777622668122355 6.041867040296355 -2.92651770212279 -9.21205991077032 0.21580940131503173 1.3623267755046666 0.07351400172234696
